<svg xmlns="http://www.w3.org/2000/svg" viewBox="0 0 348 348" fill="none">
  <path d="M5.078 5.775l.002 337.67h336.912V5.775H5.078zM190.404 284.11h.455c2.783 0 2.783 2.81 0 2.81h-.455c-2.782 0-2.782-2.81 0-2.81z"/>
  <path d="M282.734 40.554c0-8.376 6.966-15.165 15.56-15.165 4.126 0 8.084 1.597 11.001 4.441 2.918 2.844 4.558 6.702 4.558 10.724 0 8.376-6.966 15.165-15.56 15.165-8.593 0-15.559-6.79-15.559-15.165z" stroke-width="2" stroke="#000"/>
  <g fill="#000">
    <path d="M244.136 45.076l-17.588.162-17.586.163L208.8 63.6l-.162 18.197 17.588-.162 17.586-.162.162-18.197zm-1.941 1.776l.088 16.767v16.325h-32.047l.256-17.3.177-15.618h15.227z"/>
    <text style="line-height:25px;-inkscape-font-specification:Garamond" x="106.86" y="297.769" font-weight="400" font-size="37.333" font-family="Garamond" letter-spacing="0" word-spacing="0">
      <tspan x="106.86" y="297.769" style="-inkscape-font-specification:'Candara Bold'" font-weight="700" font-family="Candara">TITRATE</tspan>
    </text>
    <path d="M86.825 231.757l-1.986.01c-2.895.014-3.81.744-2.947 2.357.383.716 1.1 1.301 1.592 1.301.775 0 .896 4.354.896 32.404 0 28.05-.121 32.403-.896 32.403-.783 0-2.16 1.731-2.16 2.713 0 .19 1.236.345 2.75.345h2.751v-35.767zm-6.113.08l-14.828.113-14.826.112-.158 34.85c-.087 19.166-.034 35.177.119 35.577.204.533 4.215.741 14.986.778l14.707.05v-1.543c0-.963-.345-1.542-.918-1.542-.803 0-.918-4.007-.918-32.403s.115-32.404.918-32.404c.607 0 .918-.606.918-1.793zm-25.496 1.342c.09.043.23.33.447.87.304.757.975 1.376 1.49 1.376.83 0 .936 3.705.936 32.404 0 19.533-.224 32.402-.566 32.402-.313 0-1.001.433-1.53.961-.873.874-.96.874-.96 0 0-.528-.412-.96-.917-.96-.803 0-.918-4-.918-32.338 0-28.182.12-32.383.918-32.69.505-.193.934-.842.956-1.441.015-.429.054-.628.144-.584zm8.559 0c.09.043.23.33.447.87.304.757.975 1.376 1.49 1.376.83 0 .938 3.705.938 32.404 0 19.533-.226 32.402-.569 32.402-.312 0-.999.433-1.527.961-.874.874-.961.874-.961 0 0-.528-.414-.96-.918-.96-.804 0-.916-4-.916-32.338 0-28.182.117-32.383.916-32.69.504-.193.934-.842.955-1.441.015-.429.055-.628.145-.584zm8.578.396c.227-.007.657.317 1.328.989l1.527 1.527-.02 31.918-.017 31.918-1.51 1.097c-1.296.944-1.51.967-1.51.155 0-.52-.411-.948-.915-.948-.804 0-.918-4-.918-32.337 0-28.182.118-32.383.918-32.69.504-.193.916-.762.916-1.262 0-.239.337-.367.2-.367z"/>
    <text style="line-height:29.595541px;-inkscape-font-specification:Candara" x="58.747" y="187.053" transform="scale(.84472 1.18382)" font-weight="400" font-size="14.206" font-family="Candara" letter-spacing="0" word-spacing="0" stroke-width="1.184">
      <tspan x="58.747" y="187.053" style="-inkscape-font-specification:'Candara Bold'" font-weight="700">FIL</tspan>
    </text>
    <path d="M88.158 2.047c-28.562-.027-56.934.04-84.93.299-1.032 115.874.941 227.242-.091 343.117 111.982-1.032 230.828 2.126 342.81 1.094 1.033-115.875-1.76-228.4-.728-344.274-83.987.774-171.374-.157-257.06-.236zM6.568 5.332c100.375.388 234.309.014 335.424.443.883 105.353.74 232.577.74 337.932-102.027 0-234.771-1.275-336.798-1.275 1.763-104.796-.558-232.297.634-337.1zm36.578 37.236V61.521h34.848V42.568H60.57zm29.348 1.172l4.277.028v15.92l-15.437-.026-16.965.05V43.794l14.826.049zm9.781 1.4v36.684H203.33V45.141h-60.527zm52.4 5.536c2.773 0 4.474.507 5.136.8l-.788 2.534c-1.008-.4-2.426-.746-4.222-.746-4.663 0-8.13 2.666-8.13 7.972 0 5.014 3.09 7.813 8.067 7.813 1.639 0 3.308-.292 4.348-.719l.63 2.479c-1.007.426-3.056.853-5.671.853-6.711 0-11.217-3.759-11.217-10.266 0-6.933 5.168-10.72 11.848-10.72zm-17.253.133c1.26 0 2.111.774 2.111 1.814 0 .987-.82 1.787-2.142 1.787-1.26 0-2.112-.8-2.112-1.787 0-1.04.883-1.814 2.143-1.814zm37.418.134h3.654v8.426h9.83v-8.426h3.655V71.37h-3.655v-9.28h-9.83v9.28h-3.654zm-55.272.026h3.655v17.787h9.295v2.613h-12.95zm15.995 5.681h3.654v14.72h-3.654zm64.746 6.793c3.153 0 4.914 2.27 4.914 5.477 0 4.177-2.437 7.453-7.004 7.87a10.03 10.03 0 01-1.678.087v-1.613c.45.034.879 0 1.514-.069 3.338-.381 4.466-2.773 4.773-4.402h-.062c-.738.745-1.824 1.213-3.196 1.213-2.498 0-4.26-1.63-4.26-3.97 0-2.428 1.947-4.593 4.999-4.593zm-33.018.207h2.643v8.079h1.923v1.525h-1.923v3.45H147.7v-3.45h-6.451v-1.3zm32.895 1.266c-1.475 0-2.499 1.247-2.499 2.998 0 1.543.942 2.67 2.499 2.67 1.126 0 2.006-.554 2.457-1.23.102-.174.164-.4.164-.764 0-2.15-.88-3.674-2.621-3.674zm-137.04.275v18.954h34.848V65.19H60.57zm104.575.35a59.195 59.195 0 01-1.29 2.166l-2.949 3.986v.036h4.22V67.81c0-.746.04-1.525.1-2.27zm-70.95.861v15.909l-15.437-.026-16.965.049V66.415l14.826.02 10.203.01zm137.805 22.022c-.706 0-.851 2.745-.851 16.1 0 8.854.189 16.288.42 16.519.675.676 24.823.173 25.052-.522.111-.336-5.051-7.35-11.472-15.59-6.421-8.238-11.813-15.323-11.985-15.744-.171-.42-.695-.763-1.164-.763zm-72.629.611c-1.19 0-24.21 29.672-24.21 31.207 0 1.187.354 1.218 12.38 1.057l12.38-.166.163-16.049c.138-13.598.03-16.049-.713-16.049zM84.893 91.97c-6.886.256-13.826 2.617-18.696 5.742-3.18 2.04-5.331 4.85-5.295 6.914-.484 0 .609 83.41.4 83.746-.003.007 0 .014-.003.022-.017 0-.016.025-.014.05-.012.067.013.133.068.198.12.245.358.639.727 1.175 2.97 4.325 10.597 7.915 19.05 8.965 2.726.339 3.738.19 6.317-1.006-.094.583 1.92 6.935 2.373 8.58-.035.318.08.683.344 1.178.37.69.673 2.03.676 2.977.003.947 1.237 4.736 2.742 8.42 2.312 5.658 3.278 7.245 6.227 10.224.946.957 11.856 10.007 12.818 10.817 2.224 3.093 5.382 6.831 7.627 8.863 4.06 3.674 9.428 6.76 14.56 8.371h.002c4.018 1.26 4.435 1.22 5.227-.535.592-1.31.844-1.336 13.035-1.336l39.076.328c1.596.229 4.853.283 11.463.283 10.865 0 12.553.126 12.553.936 0 1.51 1.534 1.684 5.285.594 4.67-1.358 9.673-3.931 13.459-6.924 3.458-2.733 7.772-8.77 8.857-12.395.394-1.312 1.084-2.386 1.536-2.386.384 0 .61-.051.74-.623 1.193-.76 6.223-4.929 8.525-6.922 3.618-3.132 4.723-5.005 5.451-6.194.772-1.26 6.73-14.267 7.235-15.26 1.089.174 1.781-.945 2.732-4.156l.936-3.158 5.79-1.043c8.382-1.508 12.544-3.292 16.235-6.96l3.108-3.09.406-23.528c.223-12.94.408-31.564.408-41.389 0-15.489-.136-18.15-1.03-20.023-.566-1.188-1.258-2.16-1.534-2.16-.277 0-.156.557.267 1.24.613.988.614 1.338.01 1.715-.59.368-.796 9.586-.918 41.404l-.156 40.93-1.377-.192c-.757-.105-1.375.102-1.375.46 0 .357.414.648.918.648 1.038 0 1.229.958.305 1.53-.337.207-.618.017-.627-.423-.01-.44-.795.138-1.746 1.285-1.191 1.436-2.05 1.964-2.752 1.694-.634-.243-1.417.068-2.059.818-.634.74-1.8 1.211-3.004 1.211-1.082 0-2.138.275-2.346.611-.23.374.7.612 2.39.612 2.16 0 2.91-.274 3.435-1.252.446-.835 1.044-1.134 1.79-.897.656.208 1.568-.091 2.196-.719.59-.59 1.782-1.44 2.65-1.89l1.578-.82-1.388 1.478c-3.016 3.21-12.404 6.516-18.56 6.535-1.678.005-3 .325-3.21.774-.217.465-.278.406-.156-.153.138-.63 1.142-.977 3.209-1.107 4.964-.313 4.871-1.44-.105-1.285-2.386.074-4.64-.051-5.01-.28-2.508-1.55-6.016-2.171-10.242-1.814-2.63.222-4.373.627-4.163.967.199.321-.29.245-1.087-.17-2.008-1.046-2.26-1.354-.903-1.108.638.116 1.279-.132 1.426-.552.17-.484-.313-.764-1.314-.764-.928 0-2.136-.634-2.915-1.53-1.77-2.035-3.679-2.153-1.978-.122.647.772.37.573-.617-.442l-1.791-1.843c.022.449.045.882.066.964.402 1.536 4.52 5.032 7.713 6.547 2.235 1.06 2.648 1.095 3.537.303.554-.493 2.496-1.05 4.315-1.238 2.637-.272 3.825-.075 5.87.968 1.411.72 2.565 1.49 2.565 1.713 0 .511-1.974 7.752-2.19 8.032-.087.113-2.937-.85-6.333-2.141-6.136-2.332-6.172-2.359-5.864-4.182l.311-1.834-.668 1.717c-.53 1.365-.477 1.93.258 2.752.829.927.773 1.628-.531 6.766-2.114 8.323-3.477 10.86-6.1 11.351l-2.115.397-.09 6.24-.088 6.238-.486-7.193c-1.754-3.879-2.336-7.666-2.336-7.666.052.237.189 2.325.13 3.744-.092 2.079-.27 6.255-.398 9.281-.127 3.027-.454 6.03-.726 6.674-.35.829-.286 1.04.22.727.981-.607.9-.096-.361 2.257-3.824 7.135-13.744 14.958-17.934 14.143-1.287-.25-1.317-.219-.248.256 1.067.474.911.631-1.222 1.232-2.495.703-5.053.908-3.485.28.597-.24.521-.53-.304-1.162-.896-.686-.948-.947-.274-1.391.623-.41.65-.659.104-.996-.4-.247-.578-1.04-.397-1.762.13-.52.18-.94.113-1.275l.04.015-.114-49.767s-.765-.193-1.552-.041l-.018 3.254c-1.297-.32-4.526-.639-11.719-.733-6.993-.09-12.583-.379-12.422-.64.692-1.119-.328-1.522-6.343-1.545-2.006-.008-4.566.028-7.803.091-11.025.218-13.604.427-13.604 1.11 0 .688-2.237.844-12.191.844-6.706 0-12.32.206-12.477.459-.422.68 24.863.201 25.55-.485.336-.336 5.977-.586 13.237-.586 10.682 0 12.707.144 13.004.918.297.774 2.316.916 12.953.916 4.924.327 8.688.48 11.217.408.202-.006.404-.03.594-.06-.042 6.424-.241 38.003.012 44.76-.716-.124-1.668-.178-2.987-.182-2.185-.006-19.588-.075-38.671-.152l-34.696-.141-.02-6.879.266-41.126-1.414.12-.131 41.092-.007 7.404c.29 0 .494 1.456.457 3.237l-.069 3.238-3.668-1.035c-5.164-1.457-6.93-2.202-10.218-4.307-1.586-1.014-3.123-1.694-3.418-1.512-.295.183-1.46-.62-2.588-1.785-.665.266-2.051-2.659-3.864-5.675-.862-1.436-1.822-2.888-2.845-4.032.045-.037.086-.076.086-.076.067-.41-.717-1.628-.598-2.133.14-.592-.007-.041-.135-.988-.325-.466-.57-.754-.57-5.424 0-3.35-.222-5.121-.611-4.88-.658.406-.833 9.5-.227 11.761-.412.158.018 1.183.854 2.57-3.084-2.652-9.543-8.007-10.204-8.691-2.377-2.462-3.662-4.597-5.605-9.309-1.387-3.362-2.907-7.799-3.379-9.857l-.86-3.742 3.915-1.608c4.628-1.9 5.015-1.934 6.166-.537.834 1.013.862 1.01.525-.05-.195-.617-.355-1.35-.355-1.631 0-.115-.147-.17-.407-.174-1.705-.034-8.285 2.065-10.193 3.328-.476-1.635-2.383-7.211-2.37-7.893.078-.037.12-.053.2-.092 3.09-1.507 4.673-1.894 7.734-1.894 2.949 0 3.939.227 4.223.969.302.786.48.814.947.152.39-.552.456-.268.205.879-.203.932-.074 2.245.288 2.92.36.675.94 1.052 1.287.838.582-.36.423-1.897-.422-4.1-.24-.623.515-1.317 2.437-2.248 1.53-.74 3.85-2.56 5.155-4.043l2.373-2.697.455-40.264c.25-22.145.248-41.198-.002-42.342-.25-1.143-.967-2.735-1.596-3.537-.616-.785-.996-1.11-1.1-1.011-.103.099.07.622.557 1.53.444.83.366 1.212-.295 1.466-.77.295-.916 6.121-1.058 41.92-.154 38.652-.24 41.652-1.235 42.646-1.002 1.002-1.07 1.003-1.07.022 0-.577.275-1.05.611-1.05a.613.613 0 00.612-.61c0-.337-.412-.612-.916-.612-.505 0-.918.49-.918 1.088 0 .598-.826 1.99-1.834 3.094-1.01 1.104-1.834 2.128-1.834 2.275 0 .764 1.387.088 2.54-1.238.722-.83 1.558-1.356 1.858-1.17.3.185 1.016-.025 1.59-.469.716-.553.66-.36-.18.623-1.196 1.4-6.37 4.358-7.623 4.358-.98 0-.745-1.83.285-2.225.977-.375 1.27-1.443.395-1.443-.287 0-1.287.709-2.223 1.576-1.343 1.245-2.229 1.543-4.215 1.422-1.383-.085-3.026.07-3.648.345-.754.334-1.312.217-1.672-.351-.436-.69-.541-.655-.549.181-.008.908-.967 1.058-7.805 1.223-4.287.103-8.345-.002-9.017-.232-.776-.267-.105-.437 1.834-.467 3.803-.06 2.645-1.015-1.406-1.16-1.691-.06-3.146-.466-3.534-.987-.362-.486-1.677-.989-2.923-1.117-1.247-.128-2.601-.568-3.01-.98-.585-.59-.484-.653.478-.293 1.098.41 1.136.347.362-.604-.475-.582-1.198-.93-1.608-.773a.935.935 0 01-.306.047c.62-2.387-.734-84.168-.746-85.229 7.626-9.657 19.999-10.116 25.917-11.363-.22-.037-.043-.517-2.964-.408zm159.79 95.844l1.085 1.046c-.345-.34 1.25-85.766.54-86.705.445-.39.94-.846 1.5-1.406 1.501-1.5 5.782-3.544 10.628-5.133 4.845-1.588 10.242-2.675 10.46-2.697 0 0-.06-.538.073-.572-.053-.168-6.265.827-10.002 1.629-4.638 1.007-9.819 3.722-12.127 6.351-1.064 1.212-1.934 2.455-1.934 2.764-1.286-.544-.67 75.861-.222 84.722zM215.49 92.144a.24.24 0 01.115.003c.151.04.337.196.565.391.672.576 1.223 1.226 1.223 1.445 0 .22.963 1.452 2.14 2.737 1.177 1.285 2.139 2.521 2.139 2.75 0 .228.964 1.467 2.14 2.752 1.177 1.285 2.141 2.523 2.141 2.752 0 .228.962 1.465 2.139 2.75 1.177 1.285 2.14 2.523 2.14 2.752 0 .228.962 1.467 2.14 2.752 1.176 1.284 2.14 2.594 2.14 2.912 0 .317.417.884.927 1.257.694.507-1.782.678-9.78.678h-10.712v-13.29c0-10.08.003-12.515.543-12.641zm-75.83 1.765c.452.11.676 2.878.658 11.57l.1 12.291h-9.508c-5.229 0-9.506-.156-9.506-.347 0-.343 16.54-21.801 18.041-23.406.078-.084.15-.123.215-.108zm4.977 5.52V144.69l16.049-.162 16.048-.162.16-22.469.163-22.468h-16.211zm33.015 0v22.213c0 12.217.189 22.403.418 22.632.23.23 7.452.344 16.05.254l15.63-.162.16-22.469.16-22.468h-16.209zm67.606 3.56a.475.475 0 01-.113.08c.027-.015.082-.06.113-.08zm-.131.09c-.021.01-.042.021-.064.025.022-.009.036-.01.064-.025zm-134.563 1.406c.062-.043.143.055.24.297.171.423.573.606.893.408.367-.226.46 7.526.252 20.936-.181 11.713-.475 30.103-.804 40.861l-.475 19.565-.06-19.26c-.034-10.592.113-28.612.324-40.045.21-11.433.176-20.88-.077-20.992-.252-.112-.436-.662-.41-1.223.015-.32.192-.547.117-.547zm184.891 3.809l.098 24.303c.053 13.366-.02 24.302-.164 24.302-.777 0-.918-8.637-.454-27.513zm-101.557.305c4.08 0 4.606.127 4.426 1.07-.165.866-.964 1.104-4.197 1.248-4.073.181-4.857-.063-4.857-1.504 0-.608 1.177-.814 4.628-.814zm-35.04.064c.773-.021 1.754 0 2.962.057 2.986.14 3.91.4 3.91 1.101 0 1.356-7.747 1.655-8.837.34-.822-.99-.358-1.434 1.964-1.498zm-4.311 3.252c.717-.12 1.21 2.243.984 4.95-.107 1.286-.538 2.451-.959 2.59-.935.306-1.1-6.91-.172-7.483a.404.404 0 01.147-.057zm32.582.047c.336 0 .695 1.483.799 3.297.187 3.282-.696 5.512-1.428 3.605-.557-1.452-.06-6.902.629-6.902zm13.342.09c.378-.11.78 1.186.902 3.73.116 2.44-.057 3.822-.478 3.822-.998 0-1.325-1.37-1.116-4.664.119-1.866.398-2.802.692-2.888zm-32.301.134c.323-.025.617 1.15.617 3.545 0 2.3-.267 3.555-.795 3.73-.61.204-.752-.643-.611-3.616.114-2.406.466-3.633.789-3.659zm-31.928 6.694c4.04-.044 5.34.125 5.34.57 0 .583-2.57.766-10.803.766-5.94 0-10.596-.207-10.345-.46.25-.251 5.112-.595 10.802-.763 2.008-.06 3.66-.099 5.006-.113zm89.674.113c5.838 0 9.899.245 10.125.611.246.399-3.152.612-9.746.612-6.342 0-10.125-.229-10.125-.612 0-.382 3.656-.61 9.746-.61zm-66.842 1.854c2.654-.05 6.614.454 6.81 1.05.188.566-.94.764-4.347.764-4.267 0-6.524-.786-4.494-1.564.407-.157 1.147-.234 2.031-.25zm32.508.052a59.93 59.93 0 012.426.055c2.632.1 4.738.45 4.738.79 0 .339-2.106.69-4.738.79-3.991.15-4.738.025-4.738-.79 0-.613.418-.835 2.312-.845zm-37.035 3.244c.717-.12 1.21 2.241.984 4.948-.107 1.287-.538 2.453-.959 2.592-.935.307-1.1-6.909-.172-7.483.05-.03.147-.008.147-.056zm13.629.045c.336 0 .695 1.486.799 3.3.187 3.281-.697 5.511-1.428 3.605-.557-1.453-.06-6.905.629-6.905zm18.953 0c.336 0 .695 1.486.799 3.3.187 3.281-.696 5.511-1.428 3.605-.557-1.453-.06-6.905.629-6.905zm13.451 0c.336 0 .696 1.486.799 3.3.187 3.281-.696 5.511-1.428 3.605-.557-1.453-.06-6.905.63-6.905zm-70.275 1.53c-7.504 0-12.645.24-12.868.6-.203.329 5.076 7.615 11.733 16.19 6.657 8.577 12.449 15.598 12.87 15.604.591.007.86-3.634.763-16.193v-16.201zm83.42 0v16.507c0 14.266.123 16.508.916 16.508.504 0 .918-.305.918-.677 0-.373 4.703-6.72 10.45-14.106 5.749-7.386 10.32-13.56 10.159-13.723-.162-.161-4.474 5.086-9.58 11.66-5.107 6.576-9.424 11.956-9.596 11.956-.377 0-.208-.227 10.184-13.698 4.54-5.884 8.568-10.596 8.953-10.468.81.269 3.273-2.165 3.273-3.235 0-.536-3.346-.724-12.838-.724zm-93.16 1.834h19.792v13.328c0 9.551.209 13.537.735 14.062.403.404.585.735.404.735-.18 0-3.366-3.921-7.078-8.713a3972.335 3972.335 0 00-10.22-13.145c-1.911-2.438-3.336-4.433-3.167-4.433.17 0 4.21 5.021 8.979 11.158 9.391 12.084 10.113 12.94 9.556 11.353-.38-1.087-14.789-19.81-17.441-22.664zm94.382 0h20.405l-1.55 1.681c-.852.925-5.266 6.497-9.808 12.381-4.542 5.885-8.415 11.111-8.605 11.615-.19.505-.366-5.065-.393-12.379zm-55.873 5.521c2.654-.05 6.614.454 6.81 1.05.188.567-.94.765-4.347.765-4.267 0-6.524-.784-4.494-1.563.407-.156 1.147-.235 2.031-.252zm32.38.03c2.737-.05 7.025.374 7.144.869.202.84-9.108 1.156-9.621.326-.218-.353-.008-.79.466-.973.357-.137 1.097-.206 2.01-.223zm-52.32 32.355v28.125h78.259v-28.125h-39.13zm40.669 6.635c1.36 0 2.502.114 3.426.343l-.385 2.313c-.164.984-1.951-.51-3.041-.51-1.64 0-2.46.438-2.46 1.313 0 .465.191.843.573 1.134.333.25 1.06.602 2.178 1.053 1.187.48 2.075 1.006 2.666 1.582.784.771 1.177 1.724 1.177 2.856 0 2.715-1.95 4.072-5.853 4.072-1.326 0-2.56-.16-3.7-.479l.512-2.324c1.125.39 2.188.584 3.188.584 1.111 0 1.908-.107 2.395-.322.486-.215.73-.577.73-1.084 0-.528-.23-.973-.688-1.334-.395-.32-1.197-.736-2.406-1.25-1.097-.472-1.914-.986-2.449-1.541-.674-.701-1.01-1.566-1.01-2.594 0-1.194.44-2.129 1.323-2.803.888-.673 2.164-1.01 3.824-1.01zm22.416 0c1.36 0 2.504.114 3.427.343l-.386 2.313c-.165.984-1.951-.51-3.041-.51-1.64 0-2.46.438-2.46 1.313 0 .465.193.843.575 1.134.333.25 1.058.602 2.176 1.053 1.187.48 2.077 1.006 2.668 1.582.784.771 1.176 1.724 1.176 2.856 0 2.715-1.951 4.072-5.854 4.072-1.326 0-2.558-.16-3.697-.479l.51-2.324c1.124.39 2.187.584 3.187.584 1.111 0 1.91-.107 2.396-.322.487-.215.729-.577.729-1.084 0-.528-.23-.973-.688-1.334-.395-.32-1.197-.736-2.406-1.25-1.097-.472-1.912-.986-2.447-1.541-.674-.701-1.012-1.566-1.012-2.594 0-1.194.443-2.129 1.324-2.803.89-.673 2.163-1.01 3.823-1.01zm-48.281.156c3.076 0 4.615 1 4.615 3 0 1.542-2.366 1.409-2.366 3.063v.156c.84.132 1.573.462 2.198.99.625.52.937 1.297.937 2.332 0 2.764-2.26 4.147-6.781 4.147-.785 0-2.006-.021-3.666-.063.09-2.097.135-4.462.135-7.094 0-2.528-.045-4.684-.135-6.469h1.688c.319 0 .853-.01 1.603-.03.757-.022 1.348-.032 1.772-.032zm11.166.063h3.937c0 .395.734 2.663 2.2 6.802 1.471 4.132 2.206 6.385 2.206 6.76h-3.332c0-.458-.317-1.758-.949-3.896h-4.812c-.653 2.104-.979 3.403-.979 3.896h-3.135c0-.27.808-2.492 2.426-6.666 1.625-4.174 2.438-6.473 2.438-6.897zm21.146 0h8.459l-.115 2.28a107.186 107.186 0 00-5.666-.165c.07.965.103 2.103.103 3.416 1.452 0 4.656-1.77 4.656-.115v2.177c-1.625-.07-3.177-.103-4.656-.103 0 1.41.029 2.728.084 3.957 1.903 0 3.93-.058 6.082-.176l-.082 2.291h-8.865c.09-2.097.135-4.462.135-7.094 0-2.528-.045-4.684-.135-6.469zm-19.563 1.865c0 .27-5.651 5.812-1.843 5.812h3.79c3.776 0-1.489-5.812-1.78-5.812zm-13.271.03c-.715 0-1.35.053-1.906.157.076.702.115 1.905.115 3.613.264.014.542.022.834.022 2.194 0 3.291-.643 3.291-1.928 0-1.243-.778-1.863-2.334-1.863zm-.541 5.626c.41.246-.893.016-1.24.05 0 1.452.031 2.79.093 4.012.237.056.59.082 1.063.082 1.285 0 2.227-.151 2.824-.457.597-.312.895-.85.895-1.615 0-1.382-1.211-2.072-3.635-2.072zm-41.254 7.023c.032.032-.153.281-.533.766-.799 1.018-1.3 1.341-1.3.838 0-.127.481-.609 1.07-1.07.484-.38.732-.565.763-.534zm176.154 2.446c-.336 0-.782.275-.99.611-.208.336-.102.613.235.613.336 0 .78-.277.988-.613.208-.336.104-.611-.233-.611zM68.023 192.98c.4-.005.898.268 1.106.604.469.759.258.759-.916 0-.551-.356-.627-.598-.19-.604zm209.934.604c-.316 0-.745.275-.953.611-.208.337.05.612.574.612.524 0 .953-.275.953-.612 0-.336-.258-.611-.574-.611zm-195.07 3.125c.61 0 1.219.035 1.681.105.925.14.168.254-1.681.254-1.85 0-2.607-.114-1.682-.254.462-.07 1.072-.105 1.682-.105zm55.752.644c-.505-.064-1.496.21-3.479.756-6.19 1.709-13.008 5.656-16.601 9.614-2.12 2.334-5.716 8.682-5.67 10.011.026.788.452.297 1.195-1.375 1.434-3.227 1.804-3.706 6.715-8.718 4.187-4.274 10.835-8.112 15.431-8.907 2.051-.354 2.293-.26 2.293.895 0 .74.17.993.695.993.64 0 1.121-.303 1.079-1.688-.058-1.883-.087-1.908-.55-.46-.47 1.467-.493 1.473-.552.153-.035-.806-.052-1.209-.556-1.274zm-36.58.729c0-.17.405.38.562.98.18.686.206 1.247.059 1.247-.435 0-1.019-1.86-.688-2.19.021-.02.067-.013.067-.037zm155.363 4.893c1.011.082 2.735.796 5.824 2.062 1.04.426 2.233.967 2.95 1.326-.482.897-4.292 9.185-6.981 13.623-2.84 4.688-3.96 4.93-5.297 6.235-.86 1.03-6.28 5.043-7.723 6.21.001-1.196-.022-2.79-.058-5.01l-.102-6.208 1.889-.414c1.086-.239 2.499-1.237 3.33-2.352 1.57-2.106 3.773-8.34 4.414-12.496.331-2.146.454-3.083 1.754-2.976zM101.539 205.4a.143.143 0 00-.143.04c-.16.16-.11.584.112.943.603.975.956.784.543-.293-.15-.39-.352-.65-.512-.69zm-43.908 1.69l-9.24.062-.293 9.223.08 8.97 9.472.083 9.159.017.187-9.24.063-8.99zm26.36.592c-.292.021-.45.165-.409.46.033.231.022 1.11-.025 1.95-.083 1.469-.125 1.45-1.067-.46-1.095-2.221-2.367-2.487-5.119-1.064-2.144 1.11-4.879 4.943-4.879 6.84 0 .761.569 1.67 1.285 2.053 1.087.582 1.558.426 3.057-1.01.975-.934 1.773-1.472 1.773-1.195 0 .276-.688 1.14-1.529 1.92-2.009 1.862-1.932 3.61.258 5.8 1.442 1.442 2.315 1.788 4.518 1.788 3.628 0 5.986-1.762 4.85-3.627-.664-1.088-.623-1.267.304-1.284 2.274-.04 3.521-1.72 3.521-4.744 0-2.486-.295-3.17-2.174-5.03-1.427-1.415-3.492-2.461-4.365-2.397zm189.155.004c-.666.031-1.46.309-2.439.818-4.031 2.097-6.42 7.516-3.906 8.861 1.51.809 2.986.327 3.83-1.25.344-.642.888-1.005 1.209-.806.32.198-.244 1.054-1.254 1.904-2.31 1.943-2.322 3.49-.049 5.764 1.474 1.473 2.296 1.787 4.69 1.787 1.843 0 3.311-.37 4.021-1.012 1.285-1.163 1.474-3.022.354-3.475-.42-.17-.166-.329.566-.355 1.7-.062 3.87-2.794 3.863-4.87-.004-1.687-1.454-4.267-3.41-6.064-1.148-1.055-3.955-1.673-3.838-.845.033.23.02 1.106-.027 1.947-.083 1.469-.123 1.452-1.065-.457-.676-1.371-1.434-2-2.544-1.947zm-171.148.207c-.54.54 1.753 7.746 3.164 9.947.684 1.067 2.074 2.207 3.088 2.535 2.664.862 2.76.844 2.76-.502 0-.672-.207-1.19-.46-1.15-3.396.536-5.183-1.38-7.099-7.616-.603-1.963-1.257-3.41-1.453-3.214zm-44.484.363h8.254v8.129l-.313 7.879-7.941.062H49.51l.062-7.816.063-8.192zm215.425 1.543c1.174.05 1.924.95 1.924 2.47 0 1.78-.995 2.44-2.187 1.45-.75-.623-1.187-.4-2.725.978l-1.812 1.737v-1.506c0-1.967 1.563-4.153 3.498-4.889.473-.18.911-.257 1.302-.24zm-193.591.07c1.288-.095 2.316.642 2.316 2.4 0 1.746-.992 2.444-2.129 1.5-.62-.514-1.186-.526-2.086-.044-.68.363-1.485 1.105-1.789 1.648-.713 1.275-1.482.123-.937-1.406.881-2.476 2.968-3.975 4.625-4.098zm6.54.309c.538.078 1.305.901 2.055 2.435.832 1.7.943 2.59.475 3.82-.439 1.155-1.05 1.606-2.174 1.606-1.81 0-2.608-1.443-1.523-2.75.41-.495.633-1.879.494-3.072-.17-1.45.136-2.117.674-2.04zm193.19.008c.439-.071 1.247.777 2.178 2.484 1 1.832 1.078 2.453.473 3.781-.683 1.5-1.898 1.893-3.655 1.184-1.054-.425-.957-1.731.2-2.691.7-.582.855-1.37.57-2.891-.225-1.2-.107-1.812.234-1.867zm-195.357 1.95c.055.009.122.103.195.286.177.441.154.969-.049 1.172-.203.203-.349-.158-.322-.803.018-.445.27-.654.176-.654zm193.199 0c.056.009.122.103.195.286.177.441.155.969-.049 1.172-.203.203-.346-.158-.32-.803.018-.445.081-.668.174-.654zM79.45 217.73c.236.008.463.126.725.343.482.4.877 1.087.877 1.524 0 .437.987 1.121 2.195 1.52 1.208.398 1.965.938 1.682 1.2-1.66 1.537-5.043 1.1-6.914-.892l-1.354-1.441 1.318-1.319c.657-.656 1.078-.949 1.471-.935zm193.1.22c.896-.094 1.701.572 1.701 1.647 0 .437.99 1.121 2.197 1.52 1.208.398 1.963.938 1.68 1.2-1.477 1.366-4.67 1.14-6.475-.46-1.363-1.209-1.363-2.55-.002-3.545.293-.214.6-.33.899-.362zm-190.266.086c.052-.023.34.181.906.596.673.493 1.339.973 1.479 1.068.14.095-.034.174-.385.174s-1.015-.482-1.476-1.07c-.388-.495-.575-.744-.524-.768zm194.158.895a.516.516 0 01.18 0c.096.014.214.047.35.1.522.2.947.47.947.603 0 .495-1.164.218-1.524-.363-.12-.195-.095-.312.047-.34zm-33.007 5.553c.026.057.055.298.085.74.124 1.765.124 4.654 0 6.42-.123 1.765-.224.322-.224-3.21 0-2.647-.052-3.95.139-3.95zm38.02 2.24c-9.822.022-16.183.176-16.335.422-.19.307-.272 18.473-.183 40.367l.162 39.807 22.459-.163 22.46-.16.305-16.2.307-16.202 4.447-13.914 4.447-13.912-.168-9.932-.168-9.932-26.86-.16c-3.942-.023-7.6-.029-10.874-.021zm-244.118.181l-.168 9.97-.168 9.968 4.6 14.842 4.601 14.844v14.98c0 8.239.182 15.163.406 15.387.225.224 10.375.408 22.557.408 19.8 0 22.19-.104 22.527-.984.208-.542.226-18.632.041-40.2l-.334-39.215H64.37zm.916.918h51.969V306.08H48.037v-29.215l-2.353-7.25c-8.08-24.892-7.442-22.127-7.436-32.47zm228.05 0h51.969v18.346l-4.892 15.623-4.89 15.625v28.664h-42.186v-39.129zm39.13 3.057l-1.987.01c-2.894.014-3.81.745-2.947 2.357.383.716 1.1 1.301 1.592 1.301.775 0 .896 4.355.896 32.405s-.121 32.402-.896 32.402c-.783 0-2.16 1.731-2.16 2.713 0 .19 1.236.346 2.75.346h2.752v-35.768zm-6.114.08l-14.828.113-14.826.112-.158 34.85c-.087 19.167-.034 35.177.119 35.578.204.533 4.215.74 14.986.777l14.707.05v-1.542c0-.964-.345-1.543-.918-1.543-.803 0-.918-4.007-.918-32.403 0-28.395.115-32.404.918-32.404.607 0 .918-.606.918-1.793zM40.7 232.024v6.662c0 3.664.195 6.858.435 7.097.24.24 1.136.365 1.988.256l1.55-.181v-13.452l-1.986-.191zm233.124.277c.09.043.23.33.447.871.305.757.975 1.375 1.49 1.375.83 0 .936 3.706.936 32.404 0 19.534-.224 32.403-.566 32.403-.312 0-1.001.432-1.53.96-.873.874-.96.874-.96 0 0-.528-.412-.96-.916-.96-.804 0-.918-4-.918-32.338 0-28.181.118-32.383.918-32.69.504-.193.933-.842.955-1.441.015-.429.054-.627.144-.584zm8.559 0c.09.043.23.33.447.871.304.757.975 1.375 1.49 1.375.83 0 .938 3.706.938 32.404 0 19.534-.226 32.403-.569 32.403-.312 0-.998.432-1.527.96-.873.874-.96.874-.96 0 0-.528-.414-.96-.919-.96-.803 0-.916-4-.916-32.338 0-28.181.117-32.383.916-32.69.505-.193.934-.842.955-1.441.016-.429.055-.627.145-.584zm29.47.105l-.177 6.07c-.098 3.34-.029 6.454.15 6.92.197.515.99.781 2.01.655l1.685-.193v-13.452h-1.834zm-20.892.291c.227-.007.657.317 1.328.989l1.527 1.527-.02 31.918-.017 31.918-1.51 1.098c-1.295.943-1.51.966-1.51.154 0-.52-.41-.947-.915-.947-.804 0-.918-4-.918-32.338 0-28.181.119-32.383.918-32.69.504-.193.916-.762.916-1.261 0-.24.064-.363.2-.368zm-248.121.627c.75 0 .918 1.054.918 5.809s-.167 5.807-.918 5.807-.916-1.052-.916-5.807c0-4.755.165-5.809.916-5.809zm270.847 0c.751 0 .917 1.054.917 5.809s-.166 5.807-.917 5.807c-.75 0-.917-1.052-.917-5.807 0-4.755.167-5.809.917-5.809zm-73.388 3.272c0 .222-.564.303-.883.687-.482.581-.53.932-.125.932.739 0 1.602-1.16 1.178-1.584-.039-.038-.097-.049-.17-.035zm.756 1.844c-.11-.11-1.402.886-2.87 2.215-1.467 1.328-4.114 3.172-5.884 4.1-1.77.926-3.125 1.779-3.01 1.894.361.36 6.686-3.008 8.123-4.327.755-.692 1.523-1.107 1.707-.923.184.184-.974 1.487-2.574 2.896-2.492 2.194-6.18 4.238-13.041 7.233-2.563 1.118.133.83 3.387-.362 4.199-1.539 6.776-3.069 9.908-5.88 2.297-2.063 4.88-6.22 4.254-6.846zm-98.065 10.38c5.925-.036 19.621.038 35.4.202 34.478.358 38.235.492 38.063 1.367a21.42 21.42 0 00-.236 1.43c-.026.252-5.517.459-12.201.459-7.945 0-12.694-.005-14.647.365-8.812-.412-27.397-.101-36.623-.225l-12.373-.166-.387-1.545c-.213-.85-.267-1.664-.119-1.812.037-.037 1.148-.062 3.123-.074zm-17.576 2.254c.317.011 1.109.423 1.762.916.652.494.928.89.611.88-.316-.011-1.109-.425-1.762-.919-.652-.493-.927-.887-.61-.877zm95.035 1.282c-.277 0-.553.044-.763.129-.42.17-.077.308.763.308s1.186-.139.766-.308a2.134 2.134 0 00-.766-.13zm-68.474 1.218c2.271 0 4.542.028 6.265.082 3.447.11.628.198-6.265.198-6.894 0-9.715-.089-6.268-.198 1.723-.054 3.996-.082 6.268-.082zm69.035 1.225a1.668 1.668 0 00-.674.117c-.488.195-.343.34.37.37.644.026 1.005-.118.802-.321-.102-.102-.286-.157-.498-.166zm-84.983.611c.213.01.395.065.496.166.204.204-.158.347-.802.32-.713-.029-.857-.173-.37-.368.221-.089.464-.126.676-.118zm-37.244 10.313v41.58h158.978l-.161-20.635-.16-20.635-79.329-.154zm157.738 1.035v19.32c0 10.626-.206 19.404-.459 19.508-.252.104-35.467.119-78.257.033l-77.8-.156v-19.297c0-18.099.066-19.277 1.07-18.963 4.984 1.56 10.606.67 12.136.655 2.239 1.243 54.65.466 58.94-.25 34.803-.027 68.023-.23 73.824-.45zm-150.402.264c.499 0 .997.036 1.375.11.757.145.138.263-1.375.263s-2.131-.118-1.375-.264a7.7 7.7 0 011.375-.11z"/>
    <path d="M292.815 206.006l-.293 9.222.08 8.97 9.473.083 9.158.018.187-9.24.063-8.99-9.428-.126zm1.244 1.166l7.879-.063h8.254v8.13l-.313 7.878-7.941.063h-8.004l.062-7.817z"/>
    <text style="line-height:29.595541px;-inkscape-font-specification:Candara" x="348.187" y="186.658" transform="scale(.84472 1.18382)" font-weight="400" font-size="14.206" font-family="Candara" letter-spacing="0" word-spacing="0" stroke-width="1.184">
      <tspan x="348.187" y="186.658" style="-inkscape-font-specification:'Candara Bold'" font-weight="700">FIL</tspan>
    </text>
    <path d="M217.643 197.354c.504-.065 1.496.208 3.478.755 6.191 1.709 13.008 5.656 16.602 9.614 2.12 2.334 5.715 8.682 5.67 10.011-.027.788-.453.297-1.196-1.375-1.433-3.226-1.803-3.706-6.714-8.718-4.188-4.274-10.836-8.112-15.432-8.907-2.05-.354-2.293-.26-2.293.895 0 .74-.39 1.291-.916 1.291-.64 0-.9-.6-.858-1.986.058-1.883.087-1.908.551-.46.47 1.467.493 1.473.551.153.036-.806.052-1.209.557-1.273zM268.969 92.346c.22-.038 2.056.22 4.977.328 6.885.256 11.513 1.586 16.383 4.711 3.18 2.04 5.331 4.85 5.295 6.914-.017.925-.218.773-.826-.623-2.342-5.374-14.06-9.33-25.92-10.708-.268-.024-.319-.493-.105-.56zM85.891 91.998c.221-.037 1.7.015 4.622.123 6.885.256 11.513 1.586 16.382 4.711 3.18 2.04 5.332 4.85 5.295 6.914-.016.925-.218.773-.826-.623-2.342-5.374-12.902-8.964-24.764-10.342-.737.192-.93-.746-.709-.783z"/>
  </g>
</svg>
